<svg xmlns="http://www.w3.org/2000/svg" viewBox="0 0 90 34"><title>Risorsa 1</title><g id="Livello_2" data-name="Livello 2"><g id="Livello_1-2" data-name="Livello 1"><path d="M89,3.37C88.65,3.23,81.48,0,68.57,0A46,46,0,0,0,54.12,2.08,29.55,29.55,0,0,1,45,3.58a29.5,29.5,0,0,1-9.12-1.5A46,46,0,0,0,21.43,0C8.52,0,1.35,3.23,1.05,3.37a1.12,1.12,0,0,0-.67,1L0,9.87A1.17,1.17,0,0,0,.74,11a3,3,0,0,1,1.14.73c.07.2.19.81.37,1.69A85.51,85.51,0,0,0,5.25,25c1.53,4,3.17,5.78,7,7.42A25.06,25.06,0,0,0,21.38,34a22.82,22.82,0,0,0,8.9-1.65c6.55-2.83,8.12-7.11,10.11-12.53.29-.81.54-1.53.77-2.18,1.39-4,1.65-4.5,3.84-4.5s2.46.51,3.84,4.5c.23.65.48,1.37.78,2.17,2,5.43,3.54,9.71,10.1,12.54A22.82,22.82,0,0,0,68.62,34a25.09,25.09,0,0,0,9.16-1.59c3.8-1.64,5.43-3.38,7-7.42a85.65,85.65,0,0,0,3-11.52c.19-.89.31-1.52.37-1.7A2.82,2.82,0,0,1,89.26,11,1.17,1.17,0,0,0,90,9.87l-.38-5.54a1.14,1.14,0,0,0-.67-1ZM33.78,23c-2.05,4.26-6.36,6.42-12.81,6.42-5.17,0-8.34-1.17-10.28-3.77S6.54,12.32,8,9,16,4.65,21.7,4.65c6,0,13.06,1.23,14.51,3.93s.58,8.16-2.43,14.41Zm45.53,2.64C77.37,28.24,74.2,29.41,69,29.41c-6.45,0-10.76-2.16-12.81-6.42-3-6.25-3.92-11.63-2.43-14.41s8.54-3.93,14.52-3.93C74,4.65,80.56,5.79,82,9s-.79,14.13-2.67,16.65Z"/></g></g></svg>